{
	"patcher" : 	{
		"fileversion" : 1,
		"appversion" : 		{
			"major" : 8,
			"minor" : 5,
			"revision" : 2,
			"architecture" : "x64",
			"modernui" : 1
		}
,
		"classnamespace" : "box",
		"rect" : [ 598.0, 512.0, 330.0, 321.0 ],
		"bglocked" : 0,
		"openinpresentation" : 1,
		"default_fontsize" : 12.0,
		"default_fontface" : 0,
		"default_fontname" : "Arial",
		"gridonopen" : 1,
		"gridsize" : [ 15.0, 15.0 ],
		"gridsnaponopen" : 1,
		"objectsnaponopen" : 1,
		"statusbarvisible" : 2,
		"toolbarvisible" : 0,
		"lefttoolbarpinned" : 0,
		"toptoolbarpinned" : 0,
		"righttoolbarpinned" : 0,
		"bottomtoolbarpinned" : 0,
		"toolbars_unpinned_last_save" : 0,
		"tallnewobj" : 0,
		"boxanimatetime" : 200,
		"enablehscroll" : 1,
		"enablevscroll" : 1,
		"devicewidth" : 0.0,
		"description" : "",
		"digest" : "",
		"tags" : "",
		"style" : "",
		"subpatcher_template" : "Default Max 7",
		"assistshowspatchername" : 0,
		"globalpatchername" : "main_mixer",
		"boxes" : [ 			{
				"box" : 				{
					"id" : "obj-9",
					"maxclass" : "newobj",
					"numinlets" : 1,
					"numoutlets" : 3,
					"outlettype" : [ "", "", "" ],
					"patching_rect" : [ 91.919504284858704, 478.0, 99.0, 22.0 ],
					"restore" : [ 						{
							"data" : 							{
								"numins" : 16,
								"numouts" : 8,
								"connections" : [ 									{
										"in" : 0,
										"out" : 0,
										"gain" : 1.0
									}
 ]
							}

						}
 ],
					"saved_object_attributes" : 					{
						"parameter_enable" : 0,
						"parameter_mappable" : 0
					}
,
					"text" : "pattr bus_routing",
					"varname" : "bus_routing"
				}

			}
, 			{
				"box" : 				{
					"id" : "obj-4",
					"maxclass" : "newobj",
					"numinlets" : 1,
					"numoutlets" : 1,
					"outlettype" : [ "" ],
					"patching_rect" : [ 981.0, 602.0, 135.0, 22.0 ],
					"text" : "pattrmarker main_mixer"
				}

			}
, 			{
				"box" : 				{
					"id" : "obj-7",
					"maxclass" : "newobj",
					"numinlets" : 1,
					"numoutlets" : 0,
					"patching_rect" : [ 131.919504284858704, 1152.936432719230652, 54.0, 22.0 ],
					"text" : "mc.dac~"
				}

			}
, 			{
				"box" : 				{
					"id" : "obj-6",
					"maxclass" : "newobj",
					"numinlets" : 1,
					"numoutlets" : 1,
					"outlettype" : [ "multichannelsignal" ],
					"patching_rect" : [ 148.654708385467529, 896.279820680618286, 177.0, 22.0 ],
					"text" : "mc.receive~ ch1_out @chans 2"
				}

			}
, 			{
				"box" : 				{
					"connections" : [ 						{
							"in" : 0,
							"out" : 0,
							"gain" : 1.0
						}
 ],
					"dividers" : "none",
					"fontface" : 0,
					"fontname" : "Arial",
					"fontsize" : 12.0,
					"gaindragmode" : 1,
					"id" : "obj-5",
					"incolormap" : "none",
					"inlabels" : [ "Channel 1", "Channel 2", "Channel 3", "Channel 4", "Channel 5", "Channel 6", "Channel 7", "Channel 8", "Channel 9", "Channel 10", "Channel 11", "Channel 12", "Channel 13", "Channel 14", "Channel 15", "Channel 16" ],
					"maxclass" : "crosspatch",
					"numinlets" : 1,
					"numins" : 16,
					"numoutlets" : 2,
					"numouts" : 8,
					"outcolormap" : "none",
					"outlabels" : [ "Bus 1", "Bus 2", "Bus 3", "Bus 4", "Bus 5", "Bus 6", "Bus 7", "Bus 8" ],
					"outlettype" : [ "", "dictionary" ],
					"parameter_enable" : 0,
					"patching_rect" : [ 131.919504284858704, 508.652873635292053, 336.716415882110596, 320.0 ],
					"presentation" : 1,
					"presentation_rect" : [ -1.080495715141296, -0.347126364707947, 336.716415882110596, 320.0 ],
					"varname" : "crosspatch"
				}

			}
, 			{
				"box" : 				{
					"id" : "obj-3",
					"maxclass" : "newobj",
					"numinlets" : 16,
					"numoutlets" : 10,
					"outlettype" : [ "multichannelsignal", "multichannelsignal", "multichannelsignal", "multichannelsignal", "multichannelsignal", "multichannelsignal", "multichannelsignal", "multichannelsignal", "", "" ],
					"patching_rect" : [ 131.919504284858704, 944.869804859161377, 176.5, 22.0 ],
					"text" : "mc.matrix~ 16 8"
				}

			}
 ],
		"lines" : [ 			{
				"patchline" : 				{
					"destination" : [ "obj-7", 0 ],
					"source" : [ "obj-3", 0 ]
				}

			}
, 			{
				"patchline" : 				{
					"destination" : [ "obj-3", 0 ],
					"source" : [ "obj-5", 0 ]
				}

			}
, 			{
				"patchline" : 				{
					"destination" : [ "obj-3", 0 ],
					"source" : [ "obj-6", 0 ]
				}

			}
, 			{
				"patchline" : 				{
					"destination" : [ "obj-5", 0 ],
					"source" : [ "obj-9", 1 ]
				}

			}
 ],
		"dependency_cache" : [  ],
		"autosave" : 0
	}

}
